<svg width="210" height="210"
    xmlns="http://www.w3.org/2000/svg">
    <rect height="210" width="210" y="0" x="0" fill="#ff3300" rx="5"/>
    <g fill="#fff" stroke-width="0" transform="translate(5, 5)">
        <path d="M15 90 h15 a 20 20 0 0 0 20 -20 v-40 a 20 20 0 0 0 -20 -20 h-20 v10 h5 z m10 -10 v-60 h5 a 10 10 0 0 1 10 10 v40 a 10 10 0 0 1 -10 10 z"/>
        <path d="M60 90 h10 v-30 h10 v30 h10 v-55 a15 15 0 0 0 -30 0 z m10 -40 v-15 a5 5 0 0 1 10 0 v15 z" />
        <path d="M100 90 h10 v-55 a5 5 0 0 1 10 0 v55 h10 v-55 a 15 15 0 0 0 -30 0 z" />
        <path d="M140 40 h10 v-20 h-10 z" />
        <path d="M160 70 v5 a15 15 0 0 0 30 0 v-10 a 15 15 0 0 0 -15 -15 a5 5 0 0 1 -5 -5 v-10 a5 5 0 0 1 10 0 v5 h10 v-5 a15 15 0 0 0 -30 0 v10 a 15 15 0 0 0 15 15 a5 5 0 0 1 5 5 v10 a5 5 0 0 1 -10 0 v-5 z" />
    </g>
    <g fill="#fff" stroke-width="0" transform="translate(5, 5)">
        <path d="M30 190 h10 v-80 h150 v-10 h-180 v10 h20 z" />
        <path d="M50 175 a15 15 0 0 0 30 0 v-40 a15 15 0 0 0 -30 0 v40 a15 15 0 0 0 15 15 z m20 0 a5 5 0 0 1 -10 0 v-40 a5 5 0 0 1 10 0 z" />
        <path d="M90 175 a15 15 0 0 0 30 0 v-40 a15 15 0 0 0 -30 0 v40 a15 15 0 0 0 15 15 z m20 0 a5 5 0 0 1 -10 0 v-40 a5 5 0 0 1 10 0 z" />
        <path d="M130 190 h23 v-10 h-13 v-60 h-10 z" /> 
        <path d="M160 170 v5 a15 15 0 0 0 30 0 v-10 a 15 15 0 0 0 -15 -15 a5 5 0 0 1 -5 -5 v-10 a5 5 0 0 1 10 0 v5 h10 v-5 a15 15 0 0 0 -30 0 v10 a 15 15 0 0 0 15 15 a5 5 0 0 1 5 5 v10 a5 5 0 0 1 -10 0 v-5 z" />
    </g>
</svg>
