<svg width="901.2" height="77.76" viewBox="0 0 901.2 77.76" xmlns="http://www.w3.org/2000/svg"><g id="svgGroup" stroke-linecap="round" fill-rule="evenodd" font-size="9pt" stroke="#000" stroke-width="0.25mm" fill="none" style="stroke:#000;stroke-width:0.25mm;fill:none"><path d="M 25.92 35.52 L 25.92 29.52 L 44.72 29.52 L 44.72 59.2 L 38 59.2 L 38 53.6 A 28.706 28.706 0 0 1 34.498 56.233 A 37.883 37.883 0 0 1 31.2 58.12 Q 27.2 60.16 22.32 60.16 Q 17.44 60.16 13.36 58.24 Q 9.28 56.32 6.32 52.72 A 24.864 24.864 0 0 1 2.987 47.358 A 31.055 31.055 0 0 1 1.68 44.04 Q 0 38.96 0 32.64 A 45.664 45.664 0 0 1 0.545 25.447 A 36.802 36.802 0 0 1 1.72 20.36 A 30.363 30.363 0 0 1 4.396 14.148 A 25.816 25.816 0 0 1 6.72 10.76 Q 10 6.72 14.76 4.48 A 23.409 23.409 0 0 1 21.752 2.481 A 29.801 29.801 0 0 1 25.6 2.24 A 37.015 37.015 0 0 1 30.241 2.517 Q 32.601 2.815 34.649 3.436 A 22.738 22.738 0 0 1 34.92 3.52 Q 38.96 4.8 42.56 6.8 L 39.76 13.12 Q 36.4 11.28 32.96 10.08 A 21.155 21.155 0 0 0 28.565 9.078 A 27.558 27.558 0 0 0 25.2 8.88 A 16.265 16.265 0 0 0 19.46 9.883 A 15.429 15.429 0 0 0 18.24 10.4 A 15.231 15.231 0 0 0 12.94 14.606 A 17.7 17.7 0 0 0 12.72 14.88 A 19.529 19.529 0 0 0 10.427 18.653 A 26.282 26.282 0 0 0 9.08 22.2 A 29.742 29.742 0 0 0 8.05 27.182 A 40.713 40.713 0 0 0 7.76 32.16 Q 7.76 37.2 8.96 41.16 Q 10.16 45.12 12.32 47.88 Q 14.48 50.64 17.48 52.08 Q 20.48 53.52 24.08 53.52 Q 26.32 53.52 28.32 53 A 19.538 19.538 0 0 0 31.03 52.087 A 16.998 16.998 0 0 0 32 51.64 Q 33.68 50.8 35.08 49.8 A 21.44 21.44 0 0 0 36.541 48.662 A 16.937 16.937 0 0 0 37.52 47.76 L 37.52 35.52 L 25.92 35.52 Z M 580.56 54.48 L 584.4 48.08 Q 587.28 50.48 590.88 52 A 18.679 18.679 0 0 0 595.177 53.208 A 25.694 25.694 0 0 0 599.28 53.52 A 22.385 22.385 0 0 0 602.918 53.243 Q 604.856 52.923 606.425 52.235 A 10.96 10.96 0 0 0 608.4 51.12 A 8.224 8.224 0 0 0 610.637 48.796 Q 611.69 47.111 611.756 44.933 A 9.693 9.693 0 0 0 611.76 44.64 A 10.354 10.354 0 0 0 611.554 42.538 A 8.954 8.954 0 0 0 611.28 41.52 A 5.772 5.772 0 0 0 610.511 40.024 Q 610.057 39.379 609.4 38.76 Q 608.383 37.801 606.775 36.842 A 26.915 26.915 0 0 0 605.48 36.12 A 40.976 40.976 0 0 0 603.478 35.145 Q 602.5 34.7 601.371 34.233 A 91.343 91.343 0 0 0 598.96 33.28 Q 595.653 31.994 593.119 30.731 A 44.03 44.03 0 0 1 591.64 29.96 A 23.661 23.661 0 0 1 589.237 28.464 Q 588.032 27.603 587.099 26.668 A 13.92 13.92 0 0 1 586.8 26.36 Q 584.96 24.4 584.16 22.04 A 14.671 14.671 0 0 1 583.525 19.255 A 19.893 19.893 0 0 1 583.36 16.64 Q 583.36 13.68 584.6 11.04 A 12.755 12.755 0 0 1 587.833 6.813 A 14.948 14.948 0 0 1 588.28 6.44 Q 590.72 4.48 594.28 3.36 A 23.495 23.495 0 0 1 598.345 2.486 A 31.883 31.883 0 0 1 602.4 2.24 A 42.252 42.252 0 0 1 606.961 2.475 A 31.046 31.046 0 0 1 611.28 3.24 Q 615.2 4.24 619.04 6.08 L 616.24 12.56 A 25.197 25.197 0 0 0 612.94 10.945 A 33.349 33.349 0 0 0 609.88 9.88 Q 606.24 8.8 602.24 8.8 A 22.169 22.169 0 0 0 599.016 9.02 Q 597.323 9.269 595.94 9.802 A 10.175 10.175 0 0 0 593.92 10.84 A 7.597 7.597 0 0 0 592.143 12.457 A 5.969 5.969 0 0 0 590.88 16.24 A 9.916 9.916 0 0 0 590.984 17.706 A 7.354 7.354 0 0 0 591.32 19.08 A 4.702 4.702 0 0 0 591.926 20.225 Q 592.379 20.864 593.08 21.48 A 12.089 12.089 0 0 0 594.203 22.346 Q 594.807 22.762 595.54 23.183 A 27.673 27.673 0 0 0 596.76 23.84 Q 598.346 24.646 600.636 25.561 A 92.368 92.368 0 0 0 603.04 26.48 A 71.254 71.254 0 0 1 606.573 27.923 Q 608.303 28.688 609.771 29.468 A 37.55 37.55 0 0 1 610.88 30.08 A 27.149 27.149 0 0 1 613.352 31.675 Q 614.554 32.552 615.494 33.478 A 15.223 15.223 0 0 1 616 34 A 13.754 13.754 0 0 1 617.939 36.654 A 11.79 11.79 0 0 1 618.76 38.48 A 14.978 14.978 0 0 1 619.518 42.007 A 18.313 18.313 0 0 1 619.6 43.76 A 17.237 17.237 0 0 1 619.196 47.569 A 13.845 13.845 0 0 1 618.08 50.72 Q 616.56 53.76 613.88 55.88 Q 611.2 58 607.44 59.08 Q 603.68 60.16 599.28 60.16 A 37.893 37.893 0 0 1 593.06 59.67 A 30.439 30.439 0 0 1 588.64 58.6 A 30.565 30.565 0 0 1 584.347 56.854 A 22.746 22.746 0 0 1 580.56 54.48 Z M 873.44 0 L 873.44 24.24 Q 875.68 20.96 879.08 18.8 A 13.701 13.701 0 0 1 884.312 16.862 A 18.159 18.159 0 0 1 887.2 16.64 A 18.58 18.58 0 0 1 891.253 17.054 Q 893.927 17.652 895.877 19.113 A 10.608 10.608 0 0 1 897.72 20.88 A 14.723 14.723 0 0 1 900.604 26.783 Q 901.126 28.896 901.191 31.367 A 27.011 27.011 0 0 1 901.2 32.08 L 901.2 59.2 L 894 59.2 L 894 32.88 A 16.533 16.533 0 0 0 893.759 29.967 Q 893.472 28.362 892.841 27.073 A 8.598 8.598 0 0 0 891.96 25.64 A 6.627 6.627 0 0 0 887.347 23.039 A 9.791 9.791 0 0 0 886.08 22.96 Q 884.24 22.96 882.44 23.64 Q 880.64 24.32 879.04 25.52 Q 877.44 26.72 876 28.32 Q 874.56 29.92 873.44 31.68 L 873.44 59.2 L 866.24 59.2 L 866.24 0 L 873.44 0 Z M 179.84 20.8 L 179.84 17.6 L 186.4 17.6 L 186.4 58.24 A 33.252 33.252 0 0 1 186.176 62.214 Q 185.931 64.244 185.419 65.976 A 18.069 18.069 0 0 1 185.04 67.12 A 17.08 17.08 0 0 1 183.268 70.657 A 14.066 14.066 0 0 1 181.16 73.16 A 15.483 15.483 0 0 1 175.664 76.457 A 18.052 18.052 0 0 1 175.12 76.64 Q 171.6 77.76 167.28 77.76 A 29.09 29.09 0 0 1 160.512 76.987 A 27.128 27.128 0 0 1 160.08 76.88 A 21.614 21.614 0 0 1 155.691 75.254 A 19.016 19.016 0 0 1 153.92 74.24 L 156.56 68 A 16.449 16.449 0 0 0 159.614 69.898 A 19.79 19.79 0 0 0 161.04 70.52 Q 163.248 71.382 166.287 71.501 A 25.43 25.43 0 0 0 167.28 71.52 Q 171.897 71.52 174.902 69.564 A 10.046 10.046 0 0 0 176.2 68.56 A 8.883 8.883 0 0 0 178.499 65.049 Q 179.043 63.598 179.273 61.79 A 22.505 22.505 0 0 0 179.44 58.96 L 179.44 53.84 Q 177.84 55.76 174.84 57.48 A 12.725 12.725 0 0 1 170.695 58.948 A 17.272 17.272 0 0 1 167.68 59.2 Q 164.16 59.2 160.8 57.8 Q 157.44 56.4 154.88 53.72 Q 152.32 51.04 150.76 47.16 A 21.129 21.129 0 0 1 149.478 42.286 A 28.269 28.269 0 0 1 149.2 38.24 A 24.861 24.861 0 0 1 149.917 32.19 A 22.002 22.002 0 0 1 150.72 29.64 Q 152.24 25.68 154.84 22.8 Q 157.44 19.92 160.96 18.28 Q 164.48 16.64 168.48 16.64 Q 172.08 16.64 174.92 17.84 A 20.478 20.478 0 0 1 178.099 19.51 A 17.061 17.061 0 0 1 179.84 20.8 Z M 696.88 20.8 L 696.88 17.6 L 703.44 17.6 L 703.44 58.24 A 33.252 33.252 0 0 1 703.216 62.214 Q 702.971 64.244 702.459 65.976 A 18.069 18.069 0 0 1 702.08 67.12 A 17.08 17.08 0 0 1 700.308 70.657 A 14.066 14.066 0 0 1 698.2 73.16 A 15.483 15.483 0 0 1 692.704 76.457 A 18.052 18.052 0 0 1 692.16 76.64 Q 688.64 77.76 684.32 77.76 A 29.09 29.09 0 0 1 677.552 76.987 A 27.128 27.128 0 0 1 677.12 76.88 A 21.614 21.614 0 0 1 672.731 75.254 A 19.016 19.016 0 0 1 670.96 74.24 L 673.6 68 A 16.449 16.449 0 0 0 676.654 69.898 A 19.79 19.79 0 0 0 678.08 70.52 Q 680.288 71.382 683.327 71.501 A 25.43 25.43 0 0 0 684.32 71.52 Q 688.937 71.52 691.942 69.564 A 10.046 10.046 0 0 0 693.24 68.56 A 8.883 8.883 0 0 0 695.539 65.049 Q 696.083 63.598 696.313 61.79 A 22.505 22.505 0 0 0 696.48 58.96 L 696.48 53.84 Q 694.88 55.76 691.88 57.48 A 12.725 12.725 0 0 1 687.735 58.948 A 17.272 17.272 0 0 1 684.72 59.2 Q 681.2 59.2 677.84 57.8 Q 674.48 56.4 671.92 53.72 Q 669.36 51.04 667.8 47.16 A 21.129 21.129 0 0 1 666.518 42.286 A 28.269 28.269 0 0 1 666.24 38.24 A 24.861 24.861 0 0 1 666.957 32.19 A 22.002 22.002 0 0 1 667.76 29.64 Q 669.28 25.68 671.88 22.8 Q 674.48 19.92 678 18.28 Q 681.52 16.64 685.52 16.64 Q 689.12 16.64 691.96 17.84 A 20.478 20.478 0 0 1 695.139 19.51 A 17.061 17.061 0 0 1 696.88 20.8 Z M 386.4 17.6 L 386.4 24.56 Q 388.64 21.2 392.12 18.92 A 13.853 13.853 0 0 1 397.805 16.82 A 18.103 18.103 0 0 1 400.4 16.64 A 18.58 18.58 0 0 1 404.453 17.054 Q 407.127 17.652 409.077 19.113 A 10.608 10.608 0 0 1 410.92 20.88 A 14.723 14.723 0 0 1 413.804 26.783 Q 414.326 28.896 414.391 31.367 A 27.011 27.011 0 0 1 414.4 32.08 L 414.4 59.2 L 407.2 59.2 L 407.2 32.88 A 16.223 16.223 0 0 0 406.955 29.967 Q 406.654 28.322 405.986 27.009 A 8.551 8.551 0 0 0 405.12 25.64 A 6.768 6.768 0 0 0 400.364 23.026 A 9.911 9.911 0 0 0 399.2 22.96 Q 397.36 22.96 395.6 23.64 A 14.54 14.54 0 0 0 392.638 25.21 A 16.5 16.5 0 0 0 392.2 25.52 Q 390.56 26.72 389.16 28.32 Q 387.76 29.92 386.64 31.68 L 386.64 59.2 L 379.44 59.2 L 379.44 17.6 L 386.4 17.6 Z M 293.6 59.2 L 293.6 3.2 L 326.8 3.2 L 326.8 9.76 L 301.2 9.76 L 301.2 26.88 L 322.56 26.88 L 322.56 33.12 L 301.2 33.12 L 301.2 59.2 L 293.6 59.2 Z M 258.96 41.36 L 229.84 41.36 A 19.27 19.27 0 0 0 230.752 45.38 Q 231.703 48.096 233.473 50.02 A 11.984 11.984 0 0 0 233.92 50.48 A 11.315 11.315 0 0 0 240.02 53.529 A 16.017 16.017 0 0 0 242.8 53.76 Q 246.4 53.76 249.28 53 Q 252.16 52.24 254.8 51.04 L 256.48 57.2 A 28.325 28.325 0 0 1 252.625 58.673 A 35.413 35.413 0 0 1 250 59.36 A 32.569 32.569 0 0 1 245.927 59.984 A 43.686 43.686 0 0 1 241.92 60.16 A 23.343 23.343 0 0 1 237.283 59.717 A 18.887 18.887 0 0 1 233.84 58.68 Q 230.24 57.2 227.72 54.44 A 17.702 17.702 0 0 1 224.804 50.04 A 22.059 22.059 0 0 1 223.84 47.64 A 25.265 25.265 0 0 1 222.76 42.874 A 34.25 34.25 0 0 1 222.48 38.4 A 27.902 27.902 0 0 1 223.123 32.322 A 24.477 24.477 0 0 1 223.84 29.76 Q 225.2 25.76 227.68 22.84 Q 230.16 19.92 233.6 18.28 A 16.964 16.964 0 0 1 239.432 16.721 A 20.639 20.639 0 0 1 241.28 16.64 A 22.327 22.327 0 0 1 245.203 16.968 A 16.496 16.496 0 0 1 249.12 18.16 A 16.04 16.04 0 0 1 253.687 21.219 A 15.067 15.067 0 0 1 254.72 22.32 A 17.556 17.556 0 0 1 257.917 27.989 A 20.171 20.171 0 0 1 258.08 28.48 A 24.279 24.279 0 0 1 259.198 35.553 A 27.243 27.243 0 0 1 259.2 35.92 Q 259.2 38.72 258.96 41.36 Z M 639.12 59.2 L 622.4 19.52 L 628.96 16.8 L 643.12 51.04 L 657.28 16.8 L 663.44 19.52 L 646.64 59.2 L 639.12 59.2 Z M 428.56 19.12 L 430.08 6 L 435.6 6 L 435.6 19.12 L 447.12 19.12 L 447.12 25.36 L 435.6 25.36 L 435.6 45.44 Q 435.6 47.76 436.12 49.36 A 8.77 8.77 0 0 0 436.602 50.554 Q 436.998 51.35 437.52 51.92 Q 438.4 52.88 439.64 53.32 Q 440.88 53.76 442.24 53.76 Q 444.24 53.76 446 53.12 Q 447.76 52.48 449.36 51.6 L 451.36 57.36 A 14.837 14.837 0 0 1 450.066 58.045 Q 449.424 58.348 448.668 58.647 A 34.692 34.692 0 0 1 447.04 59.24 Q 444.32 60.16 441.36 60.16 A 14.801 14.801 0 0 1 437.215 59.609 A 11.161 11.161 0 0 1 431.88 56.24 A 12.63 12.63 0 0 1 429.34 51.661 Q 428.4 48.745 428.4 44.88 L 428.4 25.36 L 421.2 25.36 L 421.2 19.12 L 428.56 19.12 Z M 484.32 19.12 L 485.84 6 L 491.36 6 L 491.36 19.12 L 502.88 19.12 L 502.88 25.36 L 491.36 25.36 L 491.36 45.44 Q 491.36 47.76 491.88 49.36 A 8.77 8.77 0 0 0 492.362 50.554 Q 492.758 51.35 493.28 51.92 Q 494.16 52.88 495.4 53.32 Q 496.64 53.76 498 53.76 Q 500 53.76 501.76 53.12 Q 503.52 52.48 505.12 51.6 L 507.12 57.36 A 14.837 14.837 0 0 1 505.826 58.045 Q 505.184 58.348 504.428 58.647 A 34.692 34.692 0 0 1 502.8 59.24 Q 500.08 60.16 497.12 60.16 A 14.801 14.801 0 0 1 492.975 59.609 A 11.161 11.161 0 0 1 487.64 56.24 A 12.63 12.63 0 0 1 485.1 51.661 Q 484.16 48.745 484.16 44.88 L 484.16 25.36 L 476.96 25.36 L 476.96 19.12 L 484.32 19.12 Z M 836.24 19.12 L 837.76 6 L 843.28 6 L 843.28 19.12 L 854.8 19.12 L 854.8 25.36 L 843.28 25.36 L 843.28 45.44 Q 843.28 47.76 843.8 49.36 A 8.77 8.77 0 0 0 844.282 50.554 Q 844.678 51.35 845.2 51.92 Q 846.08 52.88 847.32 53.32 Q 848.56 53.76 849.92 53.76 Q 851.92 53.76 853.68 53.12 Q 855.44 52.48 857.04 51.6 L 859.04 57.36 A 14.837 14.837 0 0 1 857.746 58.045 Q 857.104 58.348 856.348 58.647 A 34.692 34.692 0 0 1 854.72 59.24 Q 852 60.16 849.04 60.16 A 14.801 14.801 0 0 1 844.895 59.609 A 11.161 11.161 0 0 1 839.56 56.24 A 12.63 12.63 0 0 1 837.02 51.661 Q 836.08 48.745 836.08 44.88 L 836.08 25.36 L 828.88 25.36 L 828.88 19.12 L 836.24 19.12 Z M 740.64 59.2 L 740.64 3.36 Q 744 2.96 747.88 2.76 A 151.85 151.85 0 0 1 753.423 2.58 A 177.861 177.861 0 0 1 756.08 2.56 A 36.207 36.207 0 0 1 760.855 2.86 A 26.887 26.887 0 0 1 765.36 3.84 Q 769.44 5.12 772.24 7.36 Q 775.04 9.6 776.48 12.76 Q 777.92 15.92 777.92 19.6 A 19.908 19.908 0 0 1 777.463 23.954 A 15.976 15.976 0 0 1 776.2 27.56 Q 774.48 31.04 771.4 33.44 A 20.059 20.059 0 0 1 766.824 36.09 A 25.186 25.186 0 0 1 764 37.08 Q 759.68 38.32 754.48 38.32 A 83.218 83.218 0 0 1 750.852 38.244 A 66.343 66.343 0 0 1 748.24 38.08 L 748.24 59.2 L 740.64 59.2 Z M 813.6 20.96 L 813.6 17.6 L 820.16 17.6 L 820.16 49.12 A 9.72 9.72 0 0 0 820.242 50.429 Q 820.447 51.934 821.171 52.696 A 2.372 2.372 0 0 0 821.64 53.08 Q 823.12 54 824.88 54 L 823.36 59.6 A 14.178 14.178 0 0 1 819.949 59.222 Q 815.439 58.102 814.163 53.664 A 10.872 10.872 0 0 1 814.08 53.36 Q 813.12 54.64 811.88 55.88 A 14.563 14.563 0 0 1 809.245 57.955 A 16.233 16.233 0 0 1 809.04 58.08 A 13.97 13.97 0 0 1 806.534 59.253 A 16.563 16.563 0 0 1 805.44 59.6 A 15.012 15.012 0 0 1 802.784 60.081 A 18.766 18.766 0 0 1 801.04 60.16 Q 797.12 60.16 793.72 58.64 Q 790.32 57.12 787.8 54.32 A 19.913 19.913 0 0 1 784.715 49.696 A 24.164 24.164 0 0 1 783.8 47.56 Q 782.32 43.6 782.32 38.64 A 26.444 26.444 0 0 1 783.126 32.034 A 23.873 23.873 0 0 1 783.76 29.96 A 22.227 22.227 0 0 1 786.289 24.915 A 19.837 19.837 0 0 1 787.8 22.96 Q 790.4 20 794.04 18.32 A 18.499 18.499 0 0 1 801.063 16.66 A 21.665 21.665 0 0 1 802 16.64 Q 805.6 16.64 808.52 17.88 A 20.801 20.801 0 0 1 811.95 19.715 A 17.682 17.682 0 0 1 813.6 20.96 Z M 205.6 0 L 205.6 45.44 A 16.515 16.515 0 0 0 205.751 47.75 Q 205.913 48.893 206.248 49.818 A 6.379 6.379 0 0 0 207.4 51.84 A 5.891 5.891 0 0 0 211.067 53.82 A 8.579 8.579 0 0 0 212.4 53.92 Q 213.92 53.92 215.36 53.56 Q 216.8 53.2 217.92 52.72 L 219.68 58.56 A 14.521 14.521 0 0 1 218.398 59.054 Q 217.761 59.267 217.031 59.458 A 27.983 27.983 0 0 1 216.12 59.68 Q 214 60.16 211.44 60.16 A 17.135 17.135 0 0 1 208.152 59.855 A 14.446 14.446 0 0 1 206.28 59.36 Q 203.92 58.56 202.16 56.88 A 10.625 10.625 0 0 1 200.178 54.262 A 13.595 13.595 0 0 1 199.4 52.56 Q 198.4 49.92 198.4 46.16 L 198.4 0 L 205.6 0 Z M 53.572 33.327 A 27.357 27.357 0 0 0 53.12 38.4 Q 53.12 43.2 54.68 47.2 A 23.561 23.561 0 0 0 55.089 48.182 A 20.35 20.35 0 0 0 59 54.08 Q 61.76 56.96 65.56 58.56 A 19.719 19.719 0 0 0 68.002 59.404 A 21.993 21.993 0 0 0 73.84 60.16 A 24.36 24.36 0 0 0 74.66 60.146 A 21.146 21.146 0 0 0 82.04 58.6 Q 85.84 57.04 88.64 54.16 A 19.06 19.06 0 0 0 90.117 52.448 A 20.929 20.929 0 0 0 93 47.24 A 22.251 22.251 0 0 0 94.067 43.529 A 27.26 27.26 0 0 0 94.56 38.24 A 27.939 27.939 0 0 0 94.371 34.943 A 22.249 22.249 0 0 0 92.96 29.28 A 22.975 22.975 0 0 0 92.431 28.059 A 19.536 19.536 0 0 0 88.56 22.48 Q 85.76 19.68 81.96 18.16 A 20.847 20.847 0 0 0 81.483 17.976 A 21.752 21.752 0 0 0 73.84 16.64 A 24.924 24.924 0 0 0 72.885 16.658 A 21.585 21.585 0 0 0 65.64 18.16 Q 61.84 19.68 59.08 22.48 A 18.611 18.611 0 0 0 57.173 24.754 A 21.443 21.443 0 0 0 54.72 29.32 A 21.849 21.849 0 0 0 53.572 33.327 Z M 101.412 33.327 A 27.357 27.357 0 0 0 100.96 38.4 Q 100.96 43.2 102.52 47.2 A 23.561 23.561 0 0 0 102.929 48.182 A 20.35 20.35 0 0 0 106.84 54.08 Q 109.6 56.96 113.4 58.56 A 19.719 19.719 0 0 0 115.842 59.404 A 21.993 21.993 0 0 0 121.68 60.16 A 24.36 24.36 0 0 0 122.5 60.146 A 21.146 21.146 0 0 0 129.88 58.6 Q 133.68 57.04 136.48 54.16 A 19.06 19.06 0 0 0 137.957 52.448 A 20.929 20.929 0 0 0 140.84 47.24 A 22.251 22.251 0 0 0 141.907 43.529 A 27.26 27.26 0 0 0 142.4 38.24 A 27.939 27.939 0 0 0 142.211 34.943 A 22.249 22.249 0 0 0 140.8 29.28 A 22.975 22.975 0 0 0 140.271 28.059 A 19.536 19.536 0 0 0 136.4 22.48 Q 133.6 19.68 129.8 18.16 A 20.847 20.847 0 0 0 129.323 17.976 A 21.752 21.752 0 0 0 121.68 16.64 A 24.924 24.924 0 0 0 120.725 16.658 A 21.585 21.585 0 0 0 113.48 18.16 Q 109.68 19.68 106.92 22.48 A 18.611 18.611 0 0 0 105.013 24.754 A 21.443 21.443 0 0 0 102.56 29.32 A 21.849 21.849 0 0 0 101.412 33.327 Z M 328.852 33.327 A 27.357 27.357 0 0 0 328.4 38.4 Q 328.4 43.2 329.96 47.2 A 23.561 23.561 0 0 0 330.369 48.182 A 20.35 20.35 0 0 0 334.28 54.08 Q 337.04 56.96 340.84 58.56 A 19.719 19.719 0 0 0 343.282 59.404 A 21.993 21.993 0 0 0 349.12 60.16 A 24.36 24.36 0 0 0 349.94 60.146 A 21.146 21.146 0 0 0 357.32 58.6 Q 361.12 57.04 363.92 54.16 A 19.06 19.06 0 0 0 365.397 52.448 A 20.929 20.929 0 0 0 368.28 47.24 A 22.251 22.251 0 0 0 369.347 43.529 A 27.26 27.26 0 0 0 369.84 38.24 A 27.939 27.939 0 0 0 369.651 34.943 A 22.249 22.249 0 0 0 368.24 29.28 A 22.975 22.975 0 0 0 367.711 28.059 A 19.536 19.536 0 0 0 363.84 22.48 Q 361.04 19.68 357.24 18.16 A 20.847 20.847 0 0 0 356.763 17.976 A 21.752 21.752 0 0 0 349.12 16.64 A 24.924 24.924 0 0 0 348.165 16.658 A 21.585 21.585 0 0 0 340.92 18.16 Q 337.12 19.68 334.36 22.48 A 18.611 18.611 0 0 0 332.453 24.754 A 21.443 21.443 0 0 0 330 29.32 A 21.849 21.849 0 0 0 328.852 33.327 Z M 509.972 33.327 A 27.357 27.357 0 0 0 509.52 38.4 Q 509.52 43.2 511.08 47.2 A 23.561 23.561 0 0 0 511.489 48.182 A 20.35 20.35 0 0 0 515.4 54.08 Q 518.16 56.96 521.96 58.56 A 19.719 19.719 0 0 0 524.402 59.404 A 21.993 21.993 0 0 0 530.24 60.16 A 24.36 24.36 0 0 0 531.06 60.146 A 21.146 21.146 0 0 0 538.44 58.6 Q 542.24 57.04 545.04 54.16 A 19.06 19.06 0 0 0 546.517 52.448 A 20.929 20.929 0 0 0 549.4 47.24 A 22.251 22.251 0 0 0 550.467 43.529 A 27.26 27.26 0 0 0 550.96 38.24 A 27.939 27.939 0 0 0 550.771 34.943 A 22.249 22.249 0 0 0 549.36 29.28 A 22.975 22.975 0 0 0 548.831 28.059 A 19.536 19.536 0 0 0 544.96 22.48 Q 542.16 19.68 538.36 18.16 A 20.847 20.847 0 0 0 537.883 17.976 A 21.752 21.752 0 0 0 530.24 16.64 A 24.924 24.924 0 0 0 529.285 16.658 A 21.585 21.585 0 0 0 522.04 18.16 Q 518.24 19.68 515.48 22.48 A 18.611 18.611 0 0 0 513.573 24.754 A 21.443 21.443 0 0 0 511.12 29.32 A 21.849 21.849 0 0 0 509.972 33.327 Z M 87.2 38.4 Q 87.2 35.28 86.2 32.48 A 15.651 15.651 0 0 0 84.3 28.756 A 14.172 14.172 0 0 0 83.4 27.6 Q 81.6 25.52 79.16 24.28 Q 76.72 23.04 73.84 23.04 A 15.399 15.399 0 0 0 69.659 23.577 A 11.229 11.229 0 0 0 64 27.2 A 14.303 14.303 0 0 0 61.061 33.099 Q 60.535 35.225 60.485 37.72 A 26.295 26.295 0 0 0 60.48 38.24 Q 60.48 41.36 61.48 44.2 Q 62.48 47.04 64.28 49.16 Q 66.08 51.28 68.52 52.52 Q 70.96 53.76 73.84 53.76 A 14.952 14.952 0 0 0 76.975 53.444 A 12.149 12.149 0 0 0 79.44 52.64 Q 81.92 51.52 83.64 49.48 A 13.893 13.893 0 0 0 85.84 45.829 A 16.561 16.561 0 0 0 86.28 44.64 A 18.239 18.239 0 0 0 87.068 40.915 A 23.206 23.206 0 0 0 87.2 38.4 Z M 135.04 38.4 Q 135.04 35.28 134.04 32.48 A 15.651 15.651 0 0 0 132.14 28.756 A 14.172 14.172 0 0 0 131.24 27.6 Q 129.44 25.52 127 24.28 Q 124.56 23.04 121.68 23.04 A 15.399 15.399 0 0 0 117.499 23.577 A 11.229 11.229 0 0 0 111.84 27.2 A 14.303 14.303 0 0 0 108.901 33.099 Q 108.375 35.225 108.325 37.72 A 26.295 26.295 0 0 0 108.32 38.24 Q 108.32 41.36 109.32 44.2 Q 110.32 47.04 112.12 49.16 Q 113.92 51.28 116.36 52.52 Q 118.8 53.76 121.68 53.76 A 14.952 14.952 0 0 0 124.815 53.444 A 12.149 12.149 0 0 0 127.28 52.64 Q 129.76 51.52 131.48 49.48 A 13.893 13.893 0 0 0 133.68 45.829 A 16.561 16.561 0 0 0 134.12 44.64 A 18.239 18.239 0 0 0 134.908 40.915 A 23.206 23.206 0 0 0 135.04 38.4 Z M 362.48 38.4 Q 362.48 35.28 361.48 32.48 A 15.651 15.651 0 0 0 359.58 28.756 A 14.172 14.172 0 0 0 358.68 27.6 Q 356.88 25.52 354.44 24.28 Q 352 23.04 349.12 23.04 A 15.399 15.399 0 0 0 344.939 23.577 A 11.229 11.229 0 0 0 339.28 27.2 A 14.303 14.303 0 0 0 336.341 33.099 Q 335.815 35.225 335.765 37.72 A 26.295 26.295 0 0 0 335.76 38.24 Q 335.76 41.36 336.76 44.2 Q 337.76 47.04 339.56 49.16 Q 341.36 51.28 343.8 52.52 Q 346.24 53.76 349.12 53.76 A 14.952 14.952 0 0 0 352.255 53.444 A 12.149 12.149 0 0 0 354.72 52.64 Q 357.2 51.52 358.92 49.48 A 13.893 13.893 0 0 0 361.12 45.829 A 16.561 16.561 0 0 0 361.56 44.64 A 18.239 18.239 0 0 0 362.348 40.915 A 23.206 23.206 0 0 0 362.48 38.4 Z M 543.6 38.4 Q 543.6 35.28 542.6 32.48 A 15.651 15.651 0 0 0 540.7 28.756 A 14.172 14.172 0 0 0 539.8 27.6 Q 538 25.52 535.56 24.28 Q 533.12 23.04 530.24 23.04 A 15.399 15.399 0 0 0 526.059 23.577 A 11.229 11.229 0 0 0 520.4 27.2 A 14.303 14.303 0 0 0 517.461 33.099 Q 516.935 35.225 516.885 37.72 A 26.295 26.295 0 0 0 516.88 38.24 Q 516.88 41.36 517.88 44.2 Q 518.88 47.04 520.68 49.16 Q 522.48 51.28 524.92 52.52 Q 527.36 53.76 530.24 53.76 A 14.952 14.952 0 0 0 533.375 53.444 A 12.149 12.149 0 0 0 535.84 52.64 Q 538.32 51.52 540.04 49.48 A 13.893 13.893 0 0 0 542.24 45.829 A 16.561 16.561 0 0 0 542.68 44.64 A 18.239 18.239 0 0 0 543.468 40.915 A 23.206 23.206 0 0 0 543.6 38.4 Z M 812.96 48.56 L 812.96 26.24 Q 810.8 24.72 808.2 23.8 Q 805.6 22.88 802.72 22.88 Q 799.84 22.88 797.44 24 Q 795.04 25.12 793.32 27.16 A 13.915 13.915 0 0 0 791.315 30.362 A 17.201 17.201 0 0 0 790.64 32.08 A 18.741 18.741 0 0 0 789.774 36.305 A 22.897 22.897 0 0 0 789.68 38.4 Q 789.68 41.76 790.64 44.6 A 15.426 15.426 0 0 0 792.141 47.819 A 13.236 13.236 0 0 0 793.36 49.48 Q 795.12 51.52 797.48 52.64 A 11.743 11.743 0 0 0 802.119 53.75 A 13.702 13.702 0 0 0 802.64 53.76 Q 805.68 53.76 808.4 52.32 Q 811.12 50.88 812.96 48.56 Z M 179.2 48 L 179.2 26.24 Q 177.36 24.96 174.96 23.92 Q 172.748 22.961 169.719 22.886 A 20.997 20.997 0 0 0 169.2 22.88 Q 166.72 22.88 164.44 23.88 Q 162.16 24.88 160.4 26.8 A 13.507 13.507 0 0 0 158.281 29.915 A 16.605 16.605 0 0 0 157.6 31.48 A 15.734 15.734 0 0 0 156.767 34.8 A 21.397 21.397 0 0 0 156.56 37.84 A 19.594 19.594 0 0 0 156.854 41.303 A 15.519 15.519 0 0 0 157.6 44.04 Q 158.64 46.8 160.4 48.76 Q 162.16 50.72 164.44 51.76 Q 166.72 52.8 169.28 52.8 Q 172.48 52.8 175.04 51.36 A 16.684 16.684 0 0 0 177.425 49.747 A 13.047 13.047 0 0 0 179.2 48 Z M 696.24 48 L 696.24 26.24 Q 694.4 24.96 692 23.92 Q 689.788 22.961 686.759 22.886 A 20.997 20.997 0 0 0 686.24 22.88 Q 683.76 22.88 681.48 23.88 Q 679.2 24.88 677.44 26.8 A 13.507 13.507 0 0 0 675.321 29.915 A 16.605 16.605 0 0 0 674.64 31.48 A 15.734 15.734 0 0 0 673.807 34.8 A 21.397 21.397 0 0 0 673.6 37.84 A 19.594 19.594 0 0 0 673.894 41.303 A 15.519 15.519 0 0 0 674.64 44.04 Q 675.68 46.8 677.44 48.76 Q 679.2 50.72 681.48 51.76 Q 683.76 52.8 686.32 52.8 Q 689.52 52.8 692.08 51.36 A 16.684 16.684 0 0 0 694.465 49.747 A 13.047 13.047 0 0 0 696.24 48 Z M 748.24 9.28 L 748.24 31.6 Q 749.12 31.71 750.246 31.801 A 76.13 76.13 0 0 0 751.32 31.88 Q 753.12 32 755.44 32 A 26.44 26.44 0 0 0 759.616 31.691 Q 763.853 31.013 766.52 28.84 A 10.279 10.279 0 0 0 770.36 21.321 A 14.334 14.334 0 0 0 770.4 20.24 A 11.695 11.695 0 0 0 769.81 16.439 A 9.704 9.704 0 0 0 766.68 12 A 12.104 12.104 0 0 0 762.709 9.895 Q 759.825 8.96 755.92 8.96 A 104.901 104.901 0 0 0 753.314 8.991 A 87.95 87.95 0 0 0 751.84 9.04 A 73.02 73.02 0 0 0 749.534 9.171 A 60.034 60.034 0 0 0 748.24 9.28 Z M 229.76 35.52 L 252.56 35.52 Q 252.56 31.104 250.957 28.166 A 9.938 9.938 0 0 0 249.52 26.16 A 9.991 9.991 0 0 0 243.952 23.139 A 14.716 14.716 0 0 0 241.12 22.88 A 11.35 11.35 0 0 0 237.32 23.492 A 9.775 9.775 0 0 0 233.4 26.08 A 11.791 11.791 0 0 0 231.166 29.604 Q 230.11 32.108 229.76 35.52 Z" vector-effect="non-scaling-stroke"/></g></svg>